<svg width="36" height="36" viewBox="0 0 36 36" fill="none" xmlns="http://www.w3.org/2000/svg">
<path d="M32.1492 28.2852C31.2647 27.4379 30.4038 26.5663 29.5675 25.6714C28.865 24.9575 28.4419 24.4381 28.4419 24.4381L23.1539 21.9131C25.271 19.5121 26.4394 16.4211 26.44 13.22C26.44 5.93201 20.5099 0 13.22 0C5.93012 0 0 5.93201 0 13.22C0 20.508 5.93012 26.44 13.22 26.44C16.5496 26.44 19.5845 25.1936 21.9131 23.1558L24.4382 28.4438C24.4382 28.4438 24.9575 28.8669 25.6714 29.5694C26.4023 30.255 27.3636 31.1822 28.2852 32.1511L30.8499 34.78L31.9906 36L35.9962 31.9943L34.7762 30.8536C34.0604 30.1511 33.1048 29.2181 32.1492 28.2852ZM13.22 22.6629C8.01322 22.6629 3.77715 18.4268 3.77715 13.22C3.77715 8.01322 8.01322 3.77715 13.22 3.77715C18.4268 3.77715 22.6629 8.01322 22.6629 13.22C22.6629 18.4268 18.4268 22.6629 13.22 22.6629Z" fill="black"/>
</svg>
